<svg xmlns="http://www.w3.org/2000/svg" width="320" height="420" viewBox="0 0 320 420" fill="none">
  <rect width="320" height="420" rx="10" fill="#F6F8FB"/>
  <rect x="16" y="18" width="180" height="16" rx="3" fill="#1D74C4" opacity="0.95"/>
  <rect x="16" y="44" width="140" height="10" rx="3" fill="#6A8BB2" opacity="0.9"/>
  <rect x="16" y="60" width="190" height="10" rx="3" fill="#6A8BB2" opacity="0.9"/>

  <rect x="16" y="92" width="110" height="12" rx="3" fill="#1D74C4" opacity="0.9"/>
  <rect x="16" y="110" width="260" height="9" rx="3" fill="#B9CDE6"/>
  <rect x="16" y="124" width="250" height="9" rx="3" fill="#B9CDE6"/>
  <rect x="16" y="138" width="190" height="9" rx="3" fill="#B9CDE6"/>

  <rect x="16" y="170" width="70" height="12" rx="3" fill="#1D74C4" opacity="0.9"/>
  <rect x="16" y="188" width="68" height="18" rx="9" fill="#E0ECF8"/>
  <rect x="90" y="188" width="68" height="18" rx="9" fill="#E0ECF8"/>
  <rect x="164" y="188" width="68" height="18" rx="9" fill="#E0ECF8"/>
  <rect x="238" y="188" width="68" height="18" rx="9" fill="#E0ECF8"/>
  <rect x="16" y="212" width="68" height="18" rx="9" fill="#E0ECF8"/>
  <rect x="90" y="212" width="68" height="18" rx="9" fill="#E0ECF8"/>
  <rect x="164" y="212" width="68" height="18" rx="9" fill="#E0ECF8"/>

  <rect x="16" y="246" width="92" height="12" rx="3" fill="#1D74C4" opacity="0.9"/>
  <rect x="16" y="264" width="210" height="10" rx="3" fill="#6A8BB2" opacity="0.8"/>
  <rect x="16" y="280" width="160" height="9" rx="3" fill="#B9CDE6"/>

  <rect x="16" y="312" width="95" height="12" rx="3" fill="#1D74C4" opacity="0.9"/>
  <rect x="16" y="330" width="240" height="9" rx="3" fill="#6A8BB2" opacity="0.8"/>
  <rect x="16" y="344" width="220" height="9" rx="3" fill="#B9CDE6"/>
  <rect x="16" y="358" width="190" height="9" rx="3" fill="#B9CDE6"/>
</svg>
