<svg xmlns="http://www.w3.org/2000/svg" width="800" height="1100" viewBox="0 0 800 1100">
  <rect width="800" height="1100" rx="28" fill="#f4f7f8"/>
  <rect x="22" y="22" width="756" height="1056" rx="24" fill="#ffffff" stroke="#d7e6e4" stroke-width="2"/>

  <rect x="22" y="22" width="756" height="160" rx="24" fill="#ffffff"/>
  <circle cx="92" cy="94" r="34" fill="#35b6ad"/>
  <circle cx="92" cy="94" r="30" fill="#2e8f88"/>
  <text x="92" y="101" text-anchor="middle" font-family="Arial, Helvetica, sans-serif" font-size="18" font-weight="700" fill="#ffffff">SW</text>
  <text x="142" y="86" font-family="Arial, Helvetica, sans-serif" font-size="26" font-weight="500" fill="#222831">Susan Williams</text>
  <rect x="142" y="96" width="164" height="20" rx="4" fill="#35b6ad"/>
  <text x="150" y="111" font-family="Arial, Helvetica, sans-serif" font-size="11" font-style="italic" fill="#ffffff">Software Development Head</text>
  <text x="540" y="56" font-family="Arial, Helvetica, sans-serif" font-size="10" fill="#222831">+1 (555) 555-555</text>
  <text x="540" y="74" font-family="Arial, Helvetica, sans-serif" font-size="10" fill="#222831">susan.williams@resumegemini.com</text>
  <text x="540" y="92" font-family="Arial, Helvetica, sans-serif" font-size="10" fill="#222831">linkedin.com/company/resumegemini</text>
  <text x="540" y="110" font-family="Arial, Helvetica, sans-serif" font-size="10" fill="#222831">Atlanta, GA, 30301</text>
  <rect x="22" y="160" width="756" height="56" fill="#35b6ad"/>
  <text x="38" y="194" font-family="Arial, Helvetica, sans-serif" font-size="11" fill="#ffffff">Highly motivated and result-oriented software development leader with a strong track record of building scalable systems.</text>

  <text x="40" y="260" font-family="Arial, Helvetica, sans-serif" font-size="15" font-weight="700" fill="#35b6ad">Experience</text>
  <circle cx="31" cy="256" r="5" fill="#35b6ad"/>
  <text x="40" y="288" font-family="Arial, Helvetica, sans-serif" font-size="13" font-weight="700" fill="#222831">Accenture Services</text>
  <rect x="454" y="278" width="90" height="18" rx="3" fill="#35b6ad"/>
  <text x="461" y="291" font-family="Arial, Helvetica, sans-serif" font-size="10" fill="#ffffff">Jun 2018 - Jan 2024</text>

  <text x="584" y="260" font-family="Arial, Helvetica, sans-serif" font-size="15" font-weight="700" fill="#35b6ad">Skills</text>
  <circle cx="575" cy="256" r="5" fill="#35b6ad"/>
  <rect x="584" y="274" width="118" height="16" rx="3" fill="#ffffff" stroke="#5fa9a4"/>
  <rect x="584" y="296" width="92" height="16" rx="3" fill="#ffffff" stroke="#5fa9a4"/>
  <rect x="584" y="318" width="104" height="16" rx="3" fill="#ffffff" stroke="#5fa9a4"/>

  <text x="584" y="374" font-family="Arial, Helvetica, sans-serif" font-size="15" font-weight="700" fill="#35b6ad">Language</text>
  <circle cx="575" cy="370" r="5" fill="#35b6ad"/>
  <rect x="584" y="388" width="70" height="16" rx="3" fill="#ffffff" stroke="#5fa9a4"/>
  <rect x="660" y="388" width="56" height="16" rx="3" fill="#ffffff" stroke="#5fa9a4"/>

  <text x="584" y="446" font-family="Arial, Helvetica, sans-serif" font-size="15" font-weight="700" fill="#35b6ad">Certifications</text>
  <circle cx="575" cy="442" r="5" fill="#35b6ad"/>
  <rect x="584" y="460" width="132" height="16" rx="3" fill="#ffffff" stroke="#5fa9a4"/>
  <rect x="584" y="482" width="108" height="16" rx="3" fill="#ffffff" stroke="#5fa9a4"/>

  <text x="40" y="520" font-family="Arial, Helvetica, sans-serif" font-size="15" font-weight="700" fill="#35b6ad">Education</text>
  <circle cx="31" cy="516" r="5" fill="#35b6ad"/>
  <text x="40" y="548" font-family="Arial, Helvetica, sans-serif" font-size="13" font-weight="700" fill="#222831">The University of Chicago</text>
  <rect x="450" y="538" width="66" height="18" rx="3" fill="#35b6ad"/>
  <text x="458" y="551" font-family="Arial, Helvetica, sans-serif" font-size="10" fill="#ffffff">Jun 2012</text>

  <text x="40" y="606" font-family="Arial, Helvetica, sans-serif" font-size="15" font-weight="700" fill="#35b6ad">Awards</text>
  <circle cx="31" cy="602" r="5" fill="#35b6ad"/>
  <rect x="40" y="624" width="236" height="10" rx="3" fill="#4f4f4f"/>
  <rect x="40" y="642" width="220" height="10" rx="3" fill="#4f4f4f"/>

  <text x="40" y="700" font-family="Arial, Helvetica, sans-serif" font-size="15" font-weight="700" fill="#35b6ad">Projects</text>
  <circle cx="31" cy="696" r="5" fill="#35b6ad"/>
  <rect x="40" y="724" width="240" height="10" rx="3" fill="#4f4f4f"/>
  <rect x="40" y="742" width="216" height="10" rx="3" fill="#4f4f4f"/>
  <rect x="40" y="760" width="202" height="10" rx="3" fill="#4f4f4f"/>
</svg>
